<svg id="icons" enable-background="new 0 0 64 64" height="512" viewBox="0 0 64 64" width="512" xmlns="http://www.w3.org/2000/svg"><path d="m61 10.5h-10l-2 7h-34l-2-7h-10c-1.1 0-2 .9-2 2v4 31c0 1.1.9 2 2 2h58c1.1 0 2-.9 2-2v-31-4c0-1.1-.9-2-2-2z" fill="#545c66"/><g fill="#434a54"><path d="m63 51.5c0 1.1-.9 2-2 2h-58c-1.1 0-2-.9-2-2v-4c0 1.1.9 2 2 2h58c1.1 0 2-.9 2-2z"/><path d="m20.98 31.5c1.1 0 2 .9 2 2s-.9 2-2 2c-1.11 0-2-.9-2-2s.89-2 2-2z"/><path d="m43 31.5c1.1 0 2 .9 2 2s-.9 2-2 2-2-.9-2-2 .9-2 2-2z"/></g><path d="m45 33.5c0-1.1-.9-2-2-2s-2 .9-2 2 .9 2 2 2 2-.9 2-2zm-2-5c2.76 0 5 2.24 5 5s-2.24 5-5 5-5-2.24-5-5 2.24-5 5-5z" fill="#aab2bd"/><path d="m27.24 28.5c1.09 1.37 1.75 3.11 1.75 5s-.66 3.63-1.76 5h-6.23c2.76 0 5-2.24 5-5s-2.24-5-5-5z" fill="#656d78"/><path d="m27.24 28.5h9.51c-1.09 1.37-1.75 3.11-1.75 5s.66 3.63 1.75 5h-9.52c1.1-1.37 1.76-3.11 1.76-5s-.66-3.63-1.75-5z" fill="#545c66"/><path d="m38 33.5c0 2.76 2.24 5 5 5h-6.25c-1.09-1.37-1.75-3.11-1.75-5s.66-3.63 1.75-5h6.25c-2.76 0-5 2.24-5 5z" fill="#656d78"/><path d="m20.98 35.5c1.1 0 2-.9 2-2s-.9-2-2-2c-1.11 0-2 .9-2 2s.89 2 2 2zm.02-7c2.76 0 5 2.24 5 5s-2.24 5-5 5-5-2.24-5-5 2.24-5 5-5z" fill="#aab2bd"/><path d="m58 22.5v22h-52v-22zm-10 11c0-2.76-2.24-5-5-5h-6.25-9.51-6.24c-2.76 0-5 2.24-5 5s2.24 5 5 5h6.23 9.52 6.25c2.76 0 5-2.24 5-5z" fill="#e6e9ed"/><path d="m51 10.5-2 7h-34l-2-7z" fill="#656d78"/><path d="m61 50.5h-58c-1.654 0-3-1.346-3-3v-35c0-1.654 1.346-3 3-3h58c1.654 0 3 1.346 3 3v35c0 1.654-1.346 3-3 3zm-58-39c-.552 0-1 .449-1 1v35c0 .552.448 1 1 1h58c.552 0 1-.448 1-1v-35c0-.551-.448-1-1-1z"/><path d="m61 54.5h-58c-1.654 0-3-1.346-3-3v-35c0-.552.447-1 1-1s1 .448 1 1v35c0 .552.448 1 1 1h58c.552 0 1-.448 1-1v-35c0-.552.447-1 1-1s1 .448 1 1v35c0 1.654-1.346 3-3 3z"/><path d="m14.999 18.5c-.435 0-.835-.287-.961-.726l-2.001-6.999c-.151-.531.156-1.084.688-1.236.525-.151 1.084.155 1.236.687l2.001 6.999c.151.531-.156 1.084-.688 1.236-.091.026-.183.039-.275.039z"/><path d="m49.001 18.5c-.092 0-.184-.013-.275-.039-.531-.152-.839-.705-.688-1.236l2.001-6.999c.152-.531.709-.839 1.236-.687.531.152.839.705.688 1.236l-2.001 6.999c-.126.439-.526.726-.961.726z"/><path d="m49 18.499h-34c-.553 0-1-.448-1-1s.447-1 1-1h34c.553 0 1 .448 1 1s-.447 1-1 1z"/><path d="m58 45.499h-52.001c-.553 0-1-.447-1-1v-21.998c0-.552.447-1 1-1h52.001c.553 0 1 .448 1 1v21.998c0 .553-.447 1-1 1zm-51.001-2h50.001v-19.998h-50.001z"/><path d="m21.001 39.5c-3.309 0-6-2.691-6-6 0-3.308 2.691-5.999 6-5.999s6 2.691 6 5.999c0 3.309-2.691 6-6 6zm0-9.999c-2.206 0-4 1.794-4 3.999 0 2.206 1.794 4 4 4s4-1.794 4-4c0-2.205-1.794-3.999-4-3.999z"/><path d="m43 39.5c-3.309 0-6-2.691-6-6 0-3.308 2.691-5.999 6-5.999s6 2.691 6 5.999c0 3.309-2.691 6-6 6zm0-9.999c-2.206 0-4 1.794-4 3.999 0 2.206 1.794 4 4 4s4-1.794 4-4c0-2.205-1.794-3.999-4-3.999z"/><path d="m36.755 39.501c-.293 0-.584-.128-.781-.374-1.273-1.588-1.974-3.586-1.974-5.627 0-2.04.701-4.037 1.974-5.625.345-.43.976-.5 1.406-.155s.5.975.154 1.406c-1.004 1.252-1.534 2.765-1.534 4.374 0 1.61.53 3.124 1.534 4.375.346.432.276 1.061-.154 1.406-.185.148-.406.22-.625.22z"/><path d="m27.231 39.501c-.219 0-.44-.072-.625-.22-.431-.346-.5-.975-.154-1.406 1.004-1.252 1.535-2.766 1.535-4.375 0-1.608-.529-3.12-1.532-4.372-.345-.431-.274-1.061.156-1.406.433-.346 1.062-.274 1.405.156 1.271 1.588 1.971 3.584 1.971 5.622 0 2.04-.701 4.038-1.975 5.627-.197.246-.488.374-.781.374z"/><path d="m43 36.5c-1.654 0-3-1.346-3-3s1.346-3 3-3 3 1.346 3 3-1.346 3-3 3zm0-4c-.552 0-1 .449-1 1 0 .552.448 1 1 1s1-.448 1-1c0-.551-.448-1-1-1z"/><path d="m20.979 36.5c-1.654 0-3-1.346-3-3s1.346-3 3-3 3 1.346 3 3-1.346 3-3 3zm0-4c-.552 0-1 .449-1 1 0 .552.448 1 1 1s1-.448 1-1c0-.551-.449-1-1-1z"/><path d="m43 39.501h-21.999c-.553 0-1-.447-1-1s.447-1 1-1h21.999c.553 0 1 .447 1 1s-.447 1-1 1z"/><path d="m43 29.501h-21.999c-.553 0-1-.448-1-1s.447-1 1-1h21.999c.553 0 1 .448 1 1s-.447 1-1 1z"/><path d="m4.03 47.501c-.553 0-1.005-.447-1.005-1s.442-1 .994-1h.011c.552 0 1 .447 1 1s-.448 1-1 1z"/><path d="m60.03 47.501c-.553 0-1.005-.447-1.005-1s.442-1 .994-1h.011c.552 0 1 .447 1 1s-.448 1-1 1z"/><path d="m60.03 14.501c-.553 0-1.005-.448-1.005-1s.442-1 .994-1h.011c.552 0 1 .448 1 1s-.448 1-1 1z"/><path d="m4.03 14.501c-.553 0-1.005-.448-1.005-1s.442-1 .994-1h.011c.552 0 1 .448 1 1s-.448 1-1 1z"/></svg>